<?xml version="1.0" encoding="UTF-8" standalone="no"?>
<!-- Created with Inkscape (http://www.inkscape.org/) -->

<svg
   xmlns:dc="http://purl.org/dc/elements/1.1/"
   xmlns:cc="http://creativecommons.org/ns#"
   xmlns:rdf="http://www.w3.org/1999/02/22-rdf-syntax-ns#"
   xmlns:svg="http://www.w3.org/2000/svg"
   xmlns="http://www.w3.org/2000/svg"
   xmlns:sodipodi="http://sodipodi.sourceforge.net/DTD/sodipodi-0.dtd"
   xmlns:inkscape="http://www.inkscape.org/namespaces/inkscape"
   id="svg2"
   version="1.1"
   inkscape:version="0.48.4 r9939"
   width="300"
   height="300"
   sodipodi:docname="AppTileIcon.png"
   inkscape:export-filename="C:\Users\bill\SkyDrive\Projects\apps\product-recalls\art\AppTileIcon.png"
   inkscape:export-xdpi="90"
   inkscape:export-ydpi="90">
  <metadata
     id="metadata8">
    <rdf:RDF>
      <cc:Work
         rdf:about="">
        <dc:format>image/svg+xml</dc:format>
        <dc:type
           rdf:resource="http://purl.org/dc/dcmitype/StillImage" />
        <dc:title></dc:title>
      </cc:Work>
    </rdf:RDF>
  </metadata>
  <defs
     id="defs6" />
  <sodipodi:namedview
     pagecolor="#ffffff"
     bordercolor="#666666"
     borderopacity="1"
     objecttolerance="10"
     gridtolerance="10"
     guidetolerance="10"
     inkscape:pageopacity="0"
     inkscape:pageshadow="2"
     inkscape:window-width="1920"
     inkscape:window-height="1017"
     id="namedview4"
     showgrid="false"
     inkscape:zoom="0.78666667"
     inkscape:cx="-48.305085"
     inkscape:cy="150"
     inkscape:window-x="-8"
     inkscape:window-y="-8"
     inkscape:window-maximized="1"
     inkscape:current-layer="layer1" />
  <g
     inkscape:groupmode="layer"
     id="layer1"
     inkscape:label="Layer">
    <rect
       style="fill:#214478;fill-opacity:1;stroke:none"
       id="rect3029"
       width="300"
       height="300"
       x="0"
       y="-5.6129902e-014" />
  </g>
  <g
     inkscape:groupmode="layer"
     id="layer2"
     inkscape:label="Layer#1">
    <g
       id="g3024"
       transform="translate(0.63559912,8.1977897)">
      <g
         transform="matrix(1.8872486,0,0,1.8872486,56.079336,29.091119)"
         id="g3011">
        <path
           inkscape:connector-curvature="0"
           style="fill:#ffffff;fill-opacity:1;fill-rule:nonzero;stroke:none"
           d="m 50.350394,104.56299 c 3.933071,0 7.122048,3.33071 7.122048,7.44094 0,4.11024 -3.188977,7.44095 -7.122048,7.44095 -3.933071,0 -7.122047,-3.33071 -7.122047,-7.44095 0,-4.11023 3.188976,-7.44094 7.122047,-7.44094 z m -28.488189,0 c 3.933071,0 7.122047,3.33071 7.122047,7.44094 0,4.11024 -3.188976,7.44095 -7.122047,7.44095 -3.968504,0 -7.15748,-3.33071 -7.15748,-7.44095 0,-4.11023 3.188976,-7.44094 7.15748,-7.44094 z m -9.992126,-2.94095 0,-8.92913 -5.7047246,-23.77559 -5.70472447,0 0,-8.929133 14.24409507,0 0,8.929133 54.177165,0 -8.53937,32.70472 -48.472441,0 z m 8.822835,-8.92913 33.661417,0 3.401575,-14.881889 -40.464567,0 3.401575,14.881889 z"
           id="path3013" />
        <path
           inkscape:connector-curvature="0"
           style="fill:#ffffff;fill-opacity:1;fill-rule:nonzero;stroke:none"
           d="m 13.464567,0 0,25.547243 C 22.5,15.590551 35.255906,9.3543304 49.429134,9.3543304 c 27.283465,0 49.429135,23.0669286 49.429135,51.5551166 0,14.208661 -5.527559,27.106298 -14.492126,36.425195 L 73.240158,85.748028 c 6.094488,-6.377952 9.885827,-15.165353 9.885827,-24.838581 0,-19.417322 -15.094488,-35.149605 -33.696851,-35.149605 -9.992126,0 -18.956693,4.535433 -25.122047,11.728346 l 25.122047,0 -13.5,14.066928 L 0,51.555116 0,14.066929 13.464567,0 z"
           id="path3015" />
      </g>
    </g>
  </g>
</svg>
